<svg width="108" height="147" fill="none" xmlns="http://www.w3.org/2000/svg"><path d="M54 46.218c-12.73 0-23.051-10.346-23.051-23.109C30.949 10.346 41.269 0 54 0c12.73 0 23.051 10.346 23.051 23.11 0 12.762-10.32 23.108-23.051 23.108ZM0 66.76 21.984 49C28.985 55.676 36 59.627 38.632 60.769c4.056 1.925 15.026 4.621 26.467 0 11.44-4.622 17.573-11.626 19.21-14.55L108 62.908c-4.055 6.633-10.245 11.982-17.502 17.545-5.806 4.45-16.079 8.274-20.49 9.629L108 126.459 87.51 147 54 115.332 20.063 147 0 125.817l37.565-34.878c-2.205.071-9.092-1.327-18.996-7.49C8.666 77.288 2.063 69.756 0 66.76Z" fill="#EF9156"/></svg>