<svg aria-hidden="true" style="width:0;height:0;position:absolute;overflow:hidden" xmlns="http://www.w3.org/2000/svg"><defs><symbol id="icon-instagram" viewBox="0 0 31 32"><path d="M17.036 1.081c1.127-.004 2.255.007 3.382.034l.3.011c.346.012.687.028 1.1.046 1.644.077 2.765.337 3.749.718a7.507 7.507 0 0 1 2.737 1.783 7.583 7.583 0 0 1 1.781 2.736c.382.984.641 2.107.718 3.751.019.411.034.754.046 1.1l.009.3c.027 1.127.039 2.253.036 3.38l.002 1.152v2.024c.004 1.127-.008 2.255-.036 3.382l-.009.3c-.012.346-.028.687-.046 1.1-.077 1.644-.34 2.765-.72 3.749a7.544 7.544 0 0 1-1.781 2.737 7.587 7.587 0 0 1-2.737 1.781c-.984.382-2.105.641-3.749.718-.412.019-.754.034-1.1.046l-.3.009a127.07 127.07 0 0 1-3.382.036l-3.174.002c-1.127.004-2.255-.008-3.381-.036l-.3-.009c-.367-.013-.733-.029-1.1-.046-1.644-.077-2.765-.34-3.751-.72a7.549 7.549 0 0 1-2.736-1.781 7.58 7.58 0 0 1-1.783-2.737c-.382-.984-.641-2.106-.718-3.749-.017-.367-.033-.733-.046-1.1l-.008-.3A127.07 127.07 0 0 1 0 18.116V14.94c-.004-1.127.007-2.253.034-3.38l.011-.3c.012-.346.028-.689.046-1.1.077-1.645.337-2.765.718-3.751a7.532 7.532 0 0 1 1.786-2.734 7.557 7.557 0 0 1 2.734-1.784c.986-.382 2.106-.641 3.751-.718l1.1-.046.3-.008a126.92 126.92 0 0 1 3.38-.039l3.176.002zm-1.588 7.723a7.718 7.718 0 0 0-7.235 4.742 7.725 7.725 0 0 0 7.235 10.704 7.72 7.72 0 0 0 7.724-7.724 7.72 7.72 0 0 0-7.724-7.723zm0 3.09a4.632 4.632 0 0 1 4.358 6.426 4.64 4.64 0 0 1-4.357 2.841 4.634 4.634 0 1 1 0-9.268l-.002.002zm8.11-5.407a1.93 1.93 0 0 0-1.853 1.93 1.934 1.934 0 0 0 1.853 1.93 1.933 1.933 0 0 0 1.365-3.296 1.933 1.933 0 0 0-1.365-.566v.003z"/></symbol><symbol id="icon-viber" viewBox="0 0 29 32"><path d="m21.797 1.807.521.115c1.361.299 2.611.963 3.611 1.919s1.711 2.166 2.055 3.496a28.99 28.99 0 0 1 0 14.487c-.343 1.33-1.054 2.54-2.054 3.496s-2.25 1.621-3.61 1.92l-.523.113a34.211 34.211 0 0 1-9.397.737l-4.199 3.695a.784.784 0 0 1-.767.15.768.768 0 0 1-.333-.226.745.745 0 0 1-.17-.362l-.715-4.199c-1.281-.349-2.446-1.026-3.376-1.961S1.248 23.092.921 21.824a28.99 28.99 0 0 1 0-14.487c.343-1.33 1.054-2.54 2.054-3.495s2.25-1.62 3.61-1.92l.521-.113a34.206 34.206 0 0 1 14.691 0zM8.403 7.213a1.286 1.286 0 0 0-.826.16h-.022a6.299 6.299 0 0 0-1.539 1.245c-.369.419-.569.843-.621 1.251-.031.242-.009.487.063.718l.028.015a17.842 17.842 0 0 0 1.617 3.44 20.325 20.325 0 0 0 3.121 4.198l.037.051.058.042.035.041.043.036a20.837 20.837 0 0 0 4.277 3.086c1.776.951 2.854 1.401 3.501 1.588v.009c.189.058.361.083.535.083a2.5 2.5 0 0 0 1.482-.626 5.97 5.97 0 0 0 1.252-1.519v-.011c.309-.575.204-1.116-.241-1.484a18.626 18.626 0 0 0-2.892-2.042c-.689-.367-1.388-.145-1.671.227l-.604.75c-.311.372-.873.321-.873.321l-.015.009c-4.199-1.054-5.32-5.237-5.32-5.237s-.052-.569.337-.859l.756-.599c.363-.29.615-.977.226-1.655a17.898 17.898 0 0 0-2.071-2.844 1.152 1.152 0 0 0-.677-.398l.003.002zm7.094-1.818c-.204 0-.399.08-.544.222a.747.747 0 0 0 0 1.07c.144.142.34.222.544.222 1.945 0 3.559.625 4.837 1.823a6.685 6.685 0 0 1 1.504 2.281c.337.852.491 1.761.451 2.671a.748.748 0 0 0 .202.544.778.778 0 0 0 1.087.045.755.755 0 0 0 .248-.525 7.976 7.976 0 0 0-.555-3.282 8.21 8.21 0 0 0-1.851-2.804l-.015-.015c-1.585-1.49-3.592-2.249-5.907-2.249zm-.052 2.487c-.204 0-.399.08-.544.222a.747.747 0 0 0 0 1.07c.144.142.34.222.544.222h.026c1.402.098 2.423.558 3.138 1.313.733.777 1.113 1.744 1.084 2.939-.005.201.072.395.213.54a.778.778 0 0 0 1.087.025.751.751 0 0 0 .238-.53c.037-1.569-.477-2.922-1.494-4.002v-.003c-1.041-1.098-2.469-1.679-4.188-1.793l-.026-.003-.077.002zm-.029 2.533a.786.786 0 0 0-.572.183.745.745 0 0 0-.059 1.086.769.769 0 0 0 .55.24c.643.033 1.053.224 1.312.48.26.257.454.67.489 1.316a.743.743 0 0 0 .245.539.765.765 0 0 0 .564.201.768.768 0 0 0 .726-.822c-.049-.908-.338-1.709-.93-2.299-.595-.59-1.405-.877-2.325-.926z"/></symbol><symbol id="icon-phone" viewBox="0 0 32 32"><path d="m28.865 21.822-4.525-.517a3.549 3.549 0 0 0-2.921 1.015l-3.278 3.278A26.8 26.8 0 0 1 6.402 13.859l3.296-3.296a3.545 3.545 0 0 0 1.015-2.921l-.517-4.489A3.563 3.563 0 0 0 6.651 0H3.569C1.556 0-.118 1.675.006 3.687.95 18.9 13.117 31.049 28.312 31.993c2.013.125 3.687-1.55 3.687-3.563v-3.082c.018-1.799-1.336-3.313-3.135-3.527z"/></symbol><symbol id="icon-facebook" viewBox="0 0 31 32"><path d="M30.897 16.566c0-8.549-6.921-15.487-15.448-15.487S.001 8.017.001 16.566c0 7.496 5.314 13.737 12.359 15.177V21.212H9.27v-4.646h3.09v-3.872c0-2.989 2.425-5.42 5.407-5.42h3.862v4.646h-3.09c-.85 0-1.545.697-1.545 1.549v3.097h4.634v4.646h-4.634v10.763c7.801-.774 13.903-7.372 13.903-15.41z"/></symbol><symbol id="icon-point" viewBox="0 0 22 32"><path d="M11.034 15.2c-1.045 0-2.048-.421-2.787-1.172S7.093 12.26 7.093 11.2s.415-2.078 1.154-2.828c.739-.75 1.741-1.172 2.787-1.172s2.048.421 2.787 1.172a4.03 4.03 0 0 1 1.154 2.828c0 .525-.102 1.045-.3 1.531s-.488.926-.854 1.298c-.366.371-.8.666-1.279.867s-.991.304-1.508.304zm0-15.2C8.107 0 5.301 1.18 3.231 3.28S-.001 8.229-.001 11.2c0 8.4 11.034 20.8 11.034 20.8s11.034-12.4 11.034-20.8c0-2.97-1.163-5.819-3.232-7.92S13.959 0 11.032 0z"/></symbol><symbol id="icon-gmail" viewBox="0 0 39 32"><path d="M35.345 0H3.927C1.767 0 .019 1.8.019 4l-.02 24c0 2.2 1.767 4 3.927 4h31.418c2.16 0 3.927-1.8 3.927-4V4c0-2.2-1.767-4-3.927-4zm0 8L19.636 18 3.927 8V4l15.709 10L35.345 4v4z"/></symbol><symbol id="icon-icon" viewBox="0 0 43 32"><path fill="#d4a971" style="fill:var(--color1,#d4a971)" d="M13.53 16c0 3.707-3.029 6.712-6.765 6.712S0 19.707 0 16s3.029-6.712 6.765-6.712S13.53 12.293 13.53 16zM19.544 31.724l-5.199-6.402c1.954-2.038 3.111-4.081 3.445-4.848.564-1.181 1.353-4.375 0-7.707s-3.403-5.117-4.26-5.594L18.416.274c1.942 1.181 3.508 2.983 5.137 5.096 1.303 1.691 2.422 4.682 2.819 5.966L37.021.273l6.014 5.966-9.271 9.758 9.271 9.882-6.202 5.842-10.21-10.939c.021.642-.388 2.648-2.192 5.531s-4.009 4.806-4.886 5.407z"/></symbol><symbol id="icon-button" viewBox="0 0 24 32"><path fill="#ef9156" style="fill:var(--color1,#ef9156)" d="M11.755 10.061c-2.771 0-5.018-2.252-5.018-5.031S8.984-.001 11.755-.001s5.018 2.252 5.018 5.031-2.247 5.031-5.018 5.031zM0 14.533l4.786-3.866C6.31 12.12 7.837 12.98 8.41 13.229c.883.419 3.271 1.006 5.761 0s3.825-2.531 4.182-3.167l5.157 3.633c-.883 1.444-2.23 2.608-3.81 3.819-1.264.969-3.5 1.801-4.46 2.096l8.27 7.919L19.05 32l-7.295-6.894L4.367 32 0 27.389l8.177-7.593c-.48.016-1.979-.289-4.135-1.63S.449 15.185 0 14.533z"/></symbol><symbol id="icon-Group" viewBox="0 0 43 32"><path fill="#ef9156" style="fill:var(--color1,#ef9156)" d="M14.804 0C-5.363 0-.185 8.489 3.222 12.027s8.857 15.705 17.033 19.101c10.22 4.245 10.901-7.782 19.758-19.101S40.013 0 14.805 0z"/><path fill="none" stroke="#000" style="stroke:var(--color2,#000)" stroke-width="2.064" d="m30.968 18.581-9.29-10.323-9.29 10.323"/></symbol><symbol id="icon-footer-inst" viewBox="0 0 32 32"><path fill="#fff" d="M17.645.002c1.168-.004 2.335.007 3.502.035l.31.011c.358.013.712.029 1.139.048 1.702.08 2.864.349 3.883.744a7.78 7.78 0 0 1 2.835 1.846 7.857 7.857 0 0 1 1.845 2.833c.395 1.019.664 2.182.744 3.885.019.426.035.781.048 1.139l.01.31c.028 1.167.041 2.334.037 3.501L32 15.548v2.096c.004 1.168-.008 2.335-.037 3.502l-.01.31c-.013.358-.029.712-.048 1.139-.08 1.702-.352 2.864-.746 3.883a7.817 7.817 0 0 1-1.845 2.835 7.865 7.865 0 0 1-2.835 1.845c-1.019.395-2.181.664-3.883.744-.427.019-.781.035-1.139.048l-.31.01c-1.167.028-2.335.041-3.502.037l-3.288.002c-1.168.004-2.335-.008-3.502-.037l-.31-.01c-.38-.014-.76-.03-1.139-.048-1.702-.08-2.864-.352-3.885-.746a7.814 7.814 0 0 1-2.833-1.845 7.846 7.846 0 0 1-1.846-2.835c-.395-1.019-.664-2.181-.744-3.883-.018-.38-.034-.759-.048-1.139l-.008-.31a127.781 127.781 0 0 1-.04-3.502v-3.289c-.004-1.167.007-2.334.035-3.501l.011-.31c.013-.358.029-.714.048-1.139.08-1.704.349-2.864.744-3.885a7.82 7.82 0 0 1 1.849-2.832A7.84 7.84 0 0 1 5.521.84C6.542.445 7.702.176 9.406.096l1.139-.048.31-.008c1.167-.029 2.334-.043 3.501-.04l3.289.002zm-1.645 8a8.006 8.006 0 0 0-5.73 2.302 7.99 7.99 0 0 0-2.383 5.697 7.993 7.993 0 0 0 2.383 5.696A7.987 7.987 0 0 0 16 23.999a8.002 8.002 0 0 0 8-8 7.994 7.994 0 0 0-8-7.998zm0 3.2a4.787 4.787 0 0 1 3.45 1.374 4.792 4.792 0 0 1 1.437 3.425 4.81 4.81 0 0 1-1.436 3.425 4.793 4.793 0 0 1-3.45 1.375 4.8 4.8 0 0 1 0-9.6l-.002.002zm8.4-5.6a2 2 0 0 0 0 3.998 2 2 0 0 0 0-4v.003z" style="fill:var(--color1,#fff)"/></symbol><symbol id="icon-footer-facebook" viewBox="0 0 32 32"><path fill="#fff" d="M32 16.04C32 7.186 24.832 0 16 0S0 7.186 0 16.04c0 7.763 5.504 14.228 12.8 15.719V20.852H9.6V16.04h3.2v-4.01c0-3.096 2.512-5.614 5.6-5.614h4v4.812h-3.2c-.88 0-1.6.722-1.6 1.604v3.208h4.8v4.812h-4.8V32c8.08-.802 14.4-7.635 14.4-15.96z" style="fill:var(--color1,#fff)"/></symbol><symbol id="icon-footer-phone" viewBox="0 0 32 32"><path fill="#fff" d="m24.132.824.577.119c1.507.309 2.891.996 3.998 1.983s1.895 2.238 2.275 3.612a28.033 28.033 0 0 1 0 14.97c-.38 1.374-1.167 2.624-2.274 3.612s-2.491 1.674-3.997 1.984l-.579.117a40.463 40.463 0 0 1-10.404.761l-4.649 3.819a.915.915 0 0 1-.848.155c-.144-.046-.271-.127-.369-.234s-.163-.236-.188-.374l-.792-4.339c-1.419-.361-2.708-1.06-3.738-2.026s-1.763-2.165-2.125-3.476a28.013 28.013 0 0 1 0-14.97c.38-1.374 1.167-2.624 2.274-3.612S5.784 1.25 7.29.941l.577-.117a40.532 40.532 0 0 1 16.265 0zM9.303 6.411a1.503 1.503 0 0 0-.914.166h-.024a6.92 6.92 0 0 0-1.704 1.286c-.409.433-.63.871-.688 1.293-.034.25-.01.503.07.742l.031.016a17.891 17.891 0 0 0 1.791 3.554 21.111 21.111 0 0 0 3.456 4.338l.041.053.065.044.039.042.048.038a23.099 23.099 0 0 0 4.736 3.189c1.966.983 3.159 1.447 3.876 1.641v.009c.209.059.4.086.592.086a2.864 2.864 0 0 0 1.641-.647 6.315 6.315 0 0 0 1.386-1.569v-.011c.342-.594.226-1.154-.267-1.533a20.699 20.699 0 0 0-3.202-2.11c-.763-.38-1.537-.15-1.85.234l-.669.775c-.344.385-.967.331-.967.331l-.017.009c-4.649-1.089-5.89-5.411-5.89-5.411s-.058-.588.373-.888l.838-.619c.402-.3.681-1.01.25-1.71a18.644 18.644 0 0 0-2.293-2.939 1.297 1.297 0 0 0-.749-.411l.003.002zm7.855-1.879c-.226 0-.442.082-.602.229s-.249.345-.249.553.09.406.249.553a.89.89 0 0 0 .602.229c2.153 0 3.941.646 5.355 1.883a6.9 6.9 0 0 1 1.665 2.357c.373.88.543 1.819.499 2.76-.005.103.013.205.051.302s.097.185.173.261c.153.153.366.243.591.252s.446-.065.612-.206a.76.76 0 0 0 .275-.543 7.749 7.749 0 0 0-.615-3.392 8.466 8.466 0 0 0-2.05-2.898l-.017-.016c-1.755-1.54-3.977-2.324-6.54-2.324zm-.058 2.57c-.226 0-.442.082-.602.229s-.249.345-.249.553c0 .207.09.406.249.553s.376.229.602.229h.029c1.552.102 2.683.577 3.474 1.357.812.803 1.232 1.802 1.2 3.037-.005.207.079.408.235.558s.37.237.596.242c.226.005.444-.073.608-.216s.258-.34.263-.547c.041-1.621-.528-3.02-1.655-4.136v-.003c-1.152-1.135-2.734-1.735-4.637-1.852l-.029-.003-.085.002zm-.033 2.618a.897.897 0 0 0-.633.188.801.801 0 0 0-.207.247.732.732 0 0 0 .143.876.852.852 0 0 0 .277.181.915.915 0 0 0 .332.067c.712.034 1.166.231 1.452.495.288.266.502.692.541 1.36.002.105.027.208.074.304s.114.182.197.253a.868.868 0 0 0 .289.163.93.93 0 0 0 .664-.032c.103-.046.194-.111.269-.19s.132-.171.167-.271a.727.727 0 0 0 .038-.31c-.055-.938-.375-1.766-1.03-2.376-.659-.61-1.556-.907-2.574-.957z" style="fill:var(--color1,#fff)"/></symbol><symbol id="icon-swiper-left" viewBox="0 0 32 32"><path fill="none" stroke="#efc981" style="stroke:var(--color1,#efc981)" stroke-width=".667" d="M31.667 16c0 8.652-7.014 15.667-15.667 15.667S.333 24.653.333 16C.333 7.348 7.347.333 16 .333S31.667 7.347 31.667 16z"/><path fill="#efc981" style="fill:var(--color1,#efc981)" d="M8.195 15.529a.668.668 0 0 0 0 .943l4.243 4.243a.668.668 0 0 0 .943-.943L9.61 16.001l3.771-3.771a.668.668 0 0 0-.943-.943L8.195 15.53zm.472 1.138h14.667v-1.333H8.667v1.333z"/></symbol><symbol id="icon-swiper-right" viewBox="0 0 32 32"><path fill="none" stroke="#ef9156" style="stroke:var(--color2,#ef9156)" stroke-width=".667" d="M31.667 16c0 8.652-7.014 15.667-15.667 15.667S.333 24.653.333 16C.333 7.348 7.347.333 16 .333S31.667 7.347 31.667 16z"/><path fill="#ef9156" style="fill:var(--color2,#ef9156)" d="M23.805 15.529c.26.26.26.682 0 .943l-4.243 4.243a.668.668 0 0 1-.943-.943l3.771-3.771-3.771-3.771a.668.668 0 0 1 .943-.943l4.243 4.243zm-.472 1.138H8.666v-1.333h14.667v1.333z"/></symbol><symbol id="icon-modal-open" viewBox="0 0 80 32"><path fill="none" stroke="#d4a870" style="stroke:var(--color1,#d4a870)" stroke-linecap="round" stroke-width="4" d="M2 2h76M2 16h76M2 30h76"/></symbol><symbol id="icon-modal-close" viewBox="0 0 32 32"><path fill="none" stroke="#d4a870" style="stroke:var(--color1,#d4a870)" stroke-linejoin="round" stroke-linecap="round" stroke-width="2.667" d="M30.667 30.667 1.334 1.334m29.333-.001L1.334 30.666"/></symbol></defs></svg>