<svg width="108" height="147" viewBox="0 0 108 147" fill="none" xmlns="http://www.w3.org/2000/svg">
<path d="M54 46.2183C41.2691 46.2183 30.9486 35.872 30.9486 23.1092C30.9486 10.3463 41.2691 0 54 0C66.7309 0 77.0514 10.3463 77.0514 23.1092C77.0514 35.872 66.7309 46.2183 54 46.2183Z" fill="#EF9156"/>
<path d="M0 66.7598L21.9842 49C28.985 55.676 36 59.6274 38.6324 60.7686C42.6877 62.6943 53.6585 65.3904 65.0988 60.7686C76.5391 56.1467 82.6719 49.1427 84.3083 46.2183L108 62.9083C103.945 69.5415 97.7549 74.8908 90.498 80.4541C84.6925 84.9048 74.419 88.7278 70.0079 90.083L108 126.459L87.5099 147L54 115.332L20.0632 147L0 125.817L37.5652 90.9389C35.3597 91.0102 28.4727 89.6122 18.5692 83.4498C8.66561 77.2873 2.06324 69.7555 0 66.7598Z" fill="#EF9156"/>
</svg>
