
<svg aria-hidden="true" style="position: absolute; width: 0; height: 0; overflow: hidden;" version="1.1" xmlns="http://www.w3.org/2000/svg" xmlns:xlink="http://www.w3.org/1999/xlink">
<defs>



<symbol id="icon-instagram" viewBox="0 0 31 32">
<path d="M17.036 1.081c1.127-0.004 2.255 0.007 3.382 0.034l0.3 0.011c0.346 0.012 0.687 0.028 1.1 0.046 1.644 0.077 2.765 0.337 3.749 0.718 1.020 0.392 1.878 0.924 2.737 1.783 0.785 0.772 1.393 1.705 1.781 2.736 0.382 0.984 0.641 2.107 0.718 3.751 0.019 0.411 0.034 0.754 0.046 1.1l0.009 0.3c0.027 1.127 0.039 2.253 0.036 3.38l0.002 1.152v2.024c0.004 1.127-0.008 2.255-0.036 3.382l-0.009 0.3c-0.012 0.346-0.028 0.687-0.046 1.1-0.077 1.644-0.34 2.765-0.72 3.749-0.387 1.032-0.995 1.966-1.781 2.737-0.772 0.785-1.706 1.393-2.737 1.781-0.984 0.382-2.105 0.641-3.749 0.718-0.412 0.019-0.754 0.034-1.1 0.046l-0.3 0.009c-1.127 0.027-2.254 0.039-3.382 0.036l-3.174 0.002c-1.127 0.004-2.255-0.008-3.381-0.036l-0.3-0.009c-0.367-0.013-0.733-0.029-1.1-0.046-1.644-0.077-2.765-0.34-3.751-0.72-1.031-0.387-1.965-0.995-2.736-1.781-0.786-0.772-1.395-1.706-1.783-2.737-0.382-0.984-0.641-2.106-0.718-3.749-0.017-0.367-0.033-0.733-0.046-1.1l-0.008-0.3c-0.028-1.127-0.041-2.254-0.039-3.382v-3.176c-0.004-1.127 0.007-2.253 0.034-3.38l0.011-0.3c0.012-0.346 0.028-0.689 0.046-1.1 0.077-1.645 0.337-2.765 0.718-3.751 0.388-1.031 0.998-1.964 1.786-2.734 0.771-0.787 1.704-1.396 2.734-1.784 0.986-0.382 2.106-0.641 3.751-0.718l1.1-0.046 0.3-0.008c1.126-0.028 2.253-0.041 3.38-0.039l3.176 0.002zM15.448 8.804c-1.023-0.014-2.040 0.175-2.989 0.556s-1.814 0.948-2.543 1.667c-0.729 0.719-1.308 1.575-1.703 2.519s-0.598 1.958-0.598 2.981c0 1.023 0.203 2.037 0.598 2.981s0.974 1.8 1.703 2.519c0.729 0.719 1.593 1.285 2.543 1.667s1.966 0.571 2.989 0.556c2.048 0 4.013-0.814 5.462-2.262s2.262-3.413 2.262-5.462c0-2.049-0.814-4.013-2.262-5.462s-3.413-2.261-5.462-2.261zM15.448 11.894c0.616-0.011 1.227 0.1 1.799 0.328s1.093 0.567 1.532 0.998c0.439 0.431 0.788 0.946 1.027 1.514s0.361 1.177 0.361 1.793c0 0.616-0.122 1.225-0.361 1.793s-0.587 1.082-1.026 1.514c-0.439 0.431-0.96 0.771-1.532 0.999s-1.184 0.34-1.799 0.328c-1.229 0-2.408-0.488-3.277-1.357s-1.357-2.048-1.357-3.277 0.488-2.408 1.357-3.277c0.869-0.869 2.048-1.357 3.277-1.357l-0.002 0.002zM23.558 6.487c-0.498 0.020-0.97 0.232-1.315 0.592s-0.538 0.839-0.538 1.338 0.193 0.978 0.538 1.338c0.346 0.36 0.817 0.572 1.315 0.592 0.512 0 1.003-0.203 1.365-0.566s0.566-0.853 0.566-1.365c0-0.512-0.203-1.003-0.566-1.365s-0.853-0.566-1.365-0.566v0.003z"></path>
</symbol>

<symbol id="icon-viber" viewBox="0 0 29 32">
<path d="M21.797 1.807l0.521 0.115c1.361 0.299 2.611 0.963 3.611 1.919s1.711 2.166 2.055 3.496c1.226 4.754 1.226 9.733 0 14.487-0.343 1.33-1.054 2.54-2.054 3.496s-2.25 1.621-3.61 1.92l-0.523 0.113c-3.082 0.678-6.245 0.926-9.397 0.737l-4.199 3.695c-0.103 0.090-0.228 0.151-0.363 0.178s-0.274 0.017-0.404-0.028-0.245-0.123-0.333-0.226c-0.089-0.103-0.147-0.228-0.17-0.362l-0.715-4.199c-1.281-0.349-2.446-1.026-3.376-1.961s-1.592-2.095-1.919-3.363c-1.226-4.754-1.226-9.733 0-14.487 0.343-1.33 1.054-2.54 2.054-3.495s2.25-1.62 3.61-1.92l0.521-0.113c4.837-1.064 9.854-1.064 14.691 0zM8.403 7.213c-0.286-0.041-0.577 0.016-0.826 0.16h-0.022c-0.577 0.333-1.096 0.752-1.539 1.245-0.369 0.419-0.569 0.843-0.621 1.251-0.031 0.242-0.009 0.487 0.063 0.718l0.028 0.015c0.415 1.199 0.956 2.354 1.617 3.44 0.853 1.525 1.902 2.936 3.121 4.198l0.037 0.051 0.058 0.042 0.035 0.041 0.043 0.036c1.287 1.204 2.724 2.241 4.277 3.086 1.776 0.951 2.854 1.401 3.501 1.588v0.009c0.189 0.058 0.361 0.083 0.535 0.083 0.551-0.040 1.073-0.261 1.482-0.626 0.5-0.436 0.923-0.948 1.252-1.519v-0.011c0.309-0.575 0.204-1.116-0.241-1.484-0.896-0.77-1.864-1.454-2.892-2.042-0.689-0.367-1.388-0.145-1.671 0.227l-0.604 0.75c-0.311 0.372-0.873 0.321-0.873 0.321l-0.015 0.009c-4.199-1.054-5.32-5.237-5.32-5.237s-0.052-0.569 0.337-0.859l0.756-0.599c0.363-0.29 0.615-0.977 0.226-1.655-0.594-1.012-1.288-1.965-2.071-2.844-0.171-0.207-0.41-0.348-0.677-0.398l0.003 0.002zM15.497 5.395c-0.204 0-0.399 0.080-0.544 0.222s-0.225 0.334-0.225 0.535c0 0.201 0.081 0.393 0.225 0.535s0.34 0.222 0.544 0.222c1.945 0 3.559 0.625 4.837 1.823 0.657 0.655 1.169 1.431 1.504 2.281 0.337 0.852 0.491 1.761 0.451 2.671-0.004 0.099 0.011 0.198 0.046 0.292s0.088 0.179 0.156 0.252c0.138 0.148 0.33 0.236 0.534 0.244s0.403-0.063 0.553-0.199c0.15-0.136 0.239-0.325 0.248-0.525 0.048-1.12-0.141-2.238-0.555-3.282-0.415-1.050-1.046-2.004-1.851-2.804l-0.015-0.015c-1.585-1.49-3.592-2.249-5.907-2.249zM15.445 7.882c-0.204 0-0.399 0.080-0.544 0.222s-0.225 0.334-0.225 0.535 0.081 0.393 0.225 0.535c0.144 0.142 0.34 0.222 0.544 0.222h0.026c1.402 0.098 2.423 0.558 3.138 1.313 0.733 0.777 1.113 1.744 1.084 2.939-0.005 0.201 0.072 0.395 0.213 0.54s0.335 0.229 0.538 0.234 0.401-0.071 0.549-0.209c0.148-0.139 0.233-0.329 0.238-0.53 0.037-1.569-0.477-2.922-1.494-4.002v-0.003c-1.041-1.098-2.469-1.679-4.188-1.793l-0.026-0.003-0.077 0.002zM15.416 10.415c-0.103-0.009-0.207 0.003-0.305 0.034s-0.189 0.082-0.267 0.149c-0.078 0.067-0.141 0.148-0.187 0.239s-0.071 0.191-0.077 0.292 0.010 0.203 0.045 0.298c0.035 0.095 0.090 0.183 0.16 0.257s0.156 0.134 0.25 0.175c0.094 0.041 0.196 0.063 0.3 0.065 0.643 0.033 1.053 0.224 1.312 0.48 0.26 0.257 0.454 0.67 0.489 1.316 0.002 0.102 0.025 0.202 0.067 0.294s0.103 0.176 0.178 0.245c0.076 0.069 0.164 0.123 0.261 0.157s0.2 0.050 0.303 0.044c0.103-0.005 0.204-0.031 0.297-0.076s0.175-0.107 0.243-0.184c0.068-0.077 0.119-0.166 0.151-0.262s0.044-0.198 0.035-0.3c-0.049-0.908-0.338-1.709-0.93-2.299-0.595-0.59-1.405-0.877-2.325-0.926z"></path>
</symbol>

<symbol id="icon-phone" viewBox="0 0 32 32">
<path d="M28.865 21.822l-4.525-0.517c-0.532-0.062-1.071-0.004-1.577 0.172s-0.966 0.464-1.344 0.843l-3.278 3.278c-5.057-2.572-9.167-6.682-11.739-11.739l3.296-3.296c0.766-0.766 1.14-1.835 1.015-2.921l-0.517-4.489c-0.101-0.869-0.518-1.671-1.172-2.252s-1.498-0.902-2.373-0.901h-3.082c-2.013 0-3.687 1.675-3.563 3.687 0.944 15.213 13.111 27.362 28.306 28.306 2.013 0.125 3.687-1.55 3.687-3.563v-3.082c0.018-1.799-1.336-3.313-3.135-3.527z"></path>
</symbol>

<symbol id="icon-facebook" viewBox="0 0 31 32">
<path d="M30.897 16.566c0-8.549-6.921-15.487-15.448-15.487s-15.448 6.938-15.448 15.487c0 7.496 5.314 13.737 12.359 15.177v-10.531h-3.090v-4.646h3.090v-3.872c0-2.989 2.425-5.42 5.407-5.42h3.862v4.646h-3.090c-0.85 0-1.545 0.697-1.545 1.549v3.097h4.634v4.646h-4.634v10.763c7.801-0.774 13.903-7.372 13.903-15.41z"></path>
</symbol>

<symbol id="icon-point" viewBox="0 0 22 32">
<path d="M11.034 15.2c-1.045 0-2.048-0.421-2.787-1.172s-1.154-1.768-1.154-2.828 0.415-2.078 1.154-2.828c0.739-0.75 1.741-1.172 2.787-1.172s2.048 0.421 2.787 1.172c0.739 0.75 1.154 1.768 1.154 2.828 0 0.525-0.102 1.045-0.3 1.531s-0.488 0.926-0.854 1.298c-0.366 0.371-0.8 0.666-1.279 0.867s-0.991 0.304-1.508 0.304zM11.034 0c-2.927 0-5.733 1.18-7.803 3.28s-3.232 4.949-3.232 7.92c0 8.4 11.034 20.8 11.034 20.8s11.034-12.4 11.034-20.8c0-2.97-1.163-5.819-3.232-7.92s-4.876-3.28-7.803-3.28z"></path>
</symbol>

<symbol id="icon-gmail" viewBox="0 0 39 32">
<path  d="M35.345 0h-31.418c-2.16 0-3.908 1.8-3.908 4l-0.020 24c0 2.2 1.767 4 3.927 4h31.418c2.16 0 3.927-1.8 3.927-4v-24c0-2.2-1.767-4-3.927-4zM35.345 8l-15.709 10-15.709-10v-4l15.709 10 15.709-10v4z"></path>
</symbol>

<symbol id="icon-icon" viewBox="0 0 43 32">
<path fill="#d4a971" style="fill: var(--color1, #d4a971)" d="M13.53 16c0 3.707-3.029 6.712-6.765 6.712s-6.765-3.005-6.765-6.712c0-3.707 3.029-6.712 6.765-6.712s6.765 3.005 6.765 6.712z"></path>
<path fill="#d4a971" style="fill: var(--color1, #d4a971)" d="M19.544 31.724l-5.199-6.402c1.954-2.038 3.111-4.081 3.445-4.848 0.564-1.181 1.353-4.375 0-7.707s-3.403-5.117-4.26-5.594l4.886-6.899c1.942 1.181 3.508 2.983 5.137 5.096 1.303 1.691 2.422 4.682 2.819 5.966l10.649-11.063 6.014 5.966-9.271 9.758 9.271 9.882-6.202 5.842-10.21-10.939c0.021 0.642-0.388 2.648-2.192 5.531s-4.009 4.806-4.886 5.407z"></path>
</symbol>

<symbol id="icon-button" viewBox="0 0 24 32">
<path fill="#ef9156" style="fill: var(--color1, #ef9156)" d="M11.755 10.061c-2.771 0-5.018-2.252-5.018-5.031s2.247-5.031 5.018-5.031c2.771 0 5.018 2.252 5.018 5.031s-2.247 5.031-5.018 5.031z"></path>
<path fill="#ef9156" style="fill: var(--color1, #ef9156)" d="M0 14.533l4.786-3.866c1.524 1.453 3.051 2.313 3.624 2.562 0.883 0.419 3.271 1.006 5.761 0s3.825-2.531 4.182-3.167l5.157 3.633c-0.883 1.444-2.23 2.608-3.81 3.819-1.264 0.969-3.5 1.801-4.46 2.096l8.27 7.919-4.46 4.471-7.295-6.894-7.388 6.894-4.367-4.611 8.177-7.593c-0.48 0.016-1.979-0.289-4.135-1.63s-3.593-2.981-4.042-3.633z"></path>
</symbol>

<symbol id="icon-Group" viewBox="0 0 43 32">
<path fill="#ef9156" style="fill: var(--color1, #ef9156)" d="M14.804 0c-20.167 0-14.989 8.489-11.582 12.027s8.857 15.705 17.033 19.101c10.22 4.245 10.901-7.782 19.758-19.101s0-12.027-25.208-12.027z"></path>
<path fill="none" stroke="#000" style="stroke: var(--color2, #000)" stroke-linejoin="miter" stroke-linecap="butt" stroke-miterlimit="4" stroke-width="2.0645" d="M30.968 18.581l-9.29-10.323-9.29 10.323"></path>
</symbol>


    <symbol id="icon-footer-inst" viewBox="0 0 32 32">
      <path fill="#fff" d="M17.645.002c1.168-.004 2.335.007 3.502.035l.31.011c.358.013.712.029 1.139.048 1.702.08 2.864.349 3.883.744a7.78 7.78 0 0 1 2.835 1.846 7.857 7.857 0 0 1 1.845 2.833c.395 1.019.664 2.182.744 3.885.019.426.035.781.048 1.139l.01.31c.028 1.167.041 2.334.037 3.501L32 15.548v2.096c.004 1.168-.008 2.335-.037 3.502l-.01.31c-.013.358-.029.712-.048 1.139-.08 1.702-.352 2.864-.746 3.883a7.817 7.817 0 0 1-1.845 2.835 7.865 7.865 0 0 1-2.835 1.845c-1.019.395-2.181.664-3.883.744-.427.019-.781.035-1.139.048l-.31.01c-1.167.028-2.335.041-3.502.037l-3.288.002c-1.168.004-2.335-.008-3.502-.037l-.31-.01c-.38-.014-.76-.03-1.139-.048-1.702-.08-2.864-.352-3.885-.746a7.814 7.814 0 0 1-2.833-1.845 7.846 7.846 0 0 1-1.846-2.835c-.395-1.019-.664-2.181-.744-3.883-.018-.38-.034-.759-.048-1.139l-.008-.31a127.781 127.781 0 0 1-.04-3.502v-3.289c-.004-1.167.007-2.334.035-3.501l.011-.31c.013-.358.029-.714.048-1.139.08-1.704.349-2.864.744-3.885a7.82 7.82 0 0 1 1.849-2.832A7.84 7.84 0 0 1 5.521.84C6.542.445 7.702.176 9.406.096l1.139-.048.31-.008c1.167-.029 2.334-.043 3.501-.04l3.289.002zm-1.645 8a8.006 8.006 0 0 0-5.73 2.302 7.99 7.99 0 0 0-2.383 5.697 7.993 7.993 0 0 0 2.383 5.696A7.987 7.987 0 0 0 16 23.999a8.002 8.002 0 0 0 8-8 7.994 7.994 0 0 0-8-7.998zm0 3.2a4.787 4.787 0 0 1 3.45 1.374 4.792 4.792 0 0 1 1.437 3.425 4.81 4.81 0 0 1-1.436 3.425 4.793 4.793 0 0 1-3.45 1.375 4.8 4.8 0 0 1 0-9.6l-.002.002zm8.4-5.6a2 2 0 0 0 0 3.998 2 2 0 0 0 0-4v.003z" style="fill:var(--color1, #fff)"/>
    </symbol>

    <symbol id="icon-footer-facebook" viewBox="0 0 32 32">
      <path fill="#fff" d="M32 16.04C32 7.186 24.832 0 16 0S0 7.186 0 16.04c0 7.763 5.504 14.228 12.8 15.719V20.852H9.6V16.04h3.2v-4.01c0-3.096 2.512-5.614 5.6-5.614h4v4.812h-3.2c-.88 0-1.6.722-1.6 1.604v3.208h4.8v4.812h-4.8V32c8.08-.802 14.4-7.635 14.4-15.96z" style="fill:var(--color1, #fff)"/>
    </symbol>
    
    <symbol id="icon-footer-phone" viewBox="0 0 32 32">
      <path fill="#fff" d="m24.132.824.577.119c1.507.309 2.891.996 3.998 1.983s1.895 2.238 2.275 3.612a28.033 28.033 0 0 1 0 14.97c-.38 1.374-1.167 2.624-2.274 3.612s-2.491 1.674-3.997 1.984l-.579.117a40.463 40.463 0 0 1-10.404.761l-4.649 3.819a.915.915 0 0 1-.848.155c-.144-.046-.271-.127-.369-.234s-.163-.236-.188-.374l-.792-4.339c-1.419-.361-2.708-1.06-3.738-2.026s-1.763-2.165-2.125-3.476a28.013 28.013 0 0 1 0-14.97c.38-1.374 1.167-2.624 2.274-3.612S5.784 1.25 7.29.941l.577-.117a40.532 40.532 0 0 1 16.265 0zM9.303 6.411a1.503 1.503 0 0 0-.914.166h-.024a6.92 6.92 0 0 0-1.704 1.286c-.409.433-.63.871-.688 1.293-.034.25-.01.503.07.742l.031.016a17.891 17.891 0 0 0 1.791 3.554 21.111 21.111 0 0 0 3.456 4.338l.041.053.065.044.039.042.048.038a23.099 23.099 0 0 0 4.736 3.189c1.966.983 3.159 1.447 3.876 1.641v.009c.209.059.4.086.592.086a2.864 2.864 0 0 0 1.641-.647 6.315 6.315 0 0 0 1.386-1.569v-.011c.342-.594.226-1.154-.267-1.533a20.699 20.699 0 0 0-3.202-2.11c-.763-.38-1.537-.15-1.85.234l-.669.775c-.344.385-.967.331-.967.331l-.017.009c-4.649-1.089-5.89-5.411-5.89-5.411s-.058-.588.373-.888l.838-.619c.402-.3.681-1.01.25-1.71a18.644 18.644 0 0 0-2.293-2.939 1.297 1.297 0 0 0-.749-.411l.003.002zm7.855-1.879c-.226 0-.442.082-.602.229s-.249.345-.249.553.09.406.249.553a.89.89 0 0 0 .602.229c2.153 0 3.941.646 5.355 1.883a6.9 6.9 0 0 1 1.665 2.357c.373.88.543 1.819.499 2.76-.005.103.013.205.051.302s.097.185.173.261c.153.153.366.243.591.252s.446-.065.612-.206a.76.76 0 0 0 .275-.543 7.749 7.749 0 0 0-.615-3.392 8.466 8.466 0 0 0-2.05-2.898l-.017-.016c-1.755-1.54-3.977-2.324-6.54-2.324zm-.058 2.57c-.226 0-.442.082-.602.229s-.249.345-.249.553c0 .207.09.406.249.553s.376.229.602.229h.029c1.552.102 2.683.577 3.474 1.357.812.803 1.232 1.802 1.2 3.037-.005.207.079.408.235.558s.37.237.596.242c.226.005.444-.073.608-.216s.258-.34.263-.547c.041-1.621-.528-3.02-1.655-4.136v-.003c-1.152-1.135-2.734-1.735-4.637-1.852l-.029-.003-.085.002zm-.033 2.618a.897.897 0 0 0-.633.188c-.086.069-.157.153-.207.247a.732.732 0 0 0 .143.876.852.852 0 0 0 .277.181.915.915 0 0 0 .332.067c.712.034 1.166.231 1.452.495.288.266.502.692.541 1.36.002.105.027.208.074.304s.114.182.197.253c.084.072.182.127.289.163a.93.93 0 0 0 .664-.032c.103-.046.194-.111.269-.19s.132-.171.167-.271a.727.727 0 0 0 .038-.31c-.055-.938-.375-1.766-1.03-2.376-.659-.61-1.556-.907-2.574-.957z" style="fill:var(--color1, #fff)"/>
    </symbol>

<symbol id="icon-swiper-left" viewBox="0 0 32 32">
<path fill="none" stroke="#efc981" style="stroke: var(--color1, #efc981)" stroke-linejoin="miter" stroke-linecap="butt" stroke-miterlimit="4" stroke-width="0.6667" d="M31.667 16c0 8.652-7.014 15.667-15.667 15.667s-15.667-7.014-15.667-15.667c0-8.652 7.014-15.667 15.667-15.667s15.667 7.014 15.667 15.667z"></path>
<path fill="#efc981" style="fill: var(--color1, #efc981)" d="M8.195 15.529c-0.26 0.26-0.26 0.682 0 0.943l4.243 4.243c0.26 0.26 0.682 0.26 0.943 0s0.26-0.682 0-0.943l-3.771-3.771 3.771-3.771c0.26-0.26 0.26-0.682 0-0.943s-0.682-0.26-0.943 0l-4.243 4.243zM8.667 16.667h14.667v-1.333h-14.667v1.333z"></path>
</symbol>

<symbol id="icon-swiper-right" viewBox="0 0 32 32">
<path fill="none" stroke="#ef9156" style="stroke: var(--color2, #ef9156)" stroke-linejoin="miter" stroke-linecap="butt" stroke-miterlimit="4" stroke-width="0.6667" d="M31.667 16c0 8.652-7.014 15.667-15.667 15.667s-15.667-7.014-15.667-15.667c0-8.652 7.014-15.667 15.667-15.667s15.667 7.014 15.667 15.667z"></path>
<path fill="#ef9156" style="fill: var(--color2, #ef9156)" d="M23.805 15.529c0.26 0.26 0.26 0.682 0 0.943l-4.243 4.243c-0.26 0.26-0.682 0.26-0.943 0s-0.26-0.682 0-0.943l3.771-3.771-3.771-3.771c-0.26-0.26-0.26-0.682 0-0.943s0.682-0.26 0.943 0l4.243 4.243zM23.333 16.667h-14.667v-1.333h14.667v1.333z"></path>
</symbol>

<symbol id="icon-modal-open" viewBox="0 0 80 32">
<path fill="none" stroke="#d4a870" style="stroke: var(--color1, #d4a870)" stroke-linejoin="miter" stroke-linecap="round" stroke-miterlimit="4" stroke-width="4" d="M2 2h76"></path>
<path fill="none" stroke="#d4a870" style="stroke: var(--color1, #d4a870)" stroke-linejoin="miter" stroke-linecap="round" stroke-miterlimit="4" stroke-width="4" d="M2 16h76"></path>
<path fill="none" stroke="#d4a870" style="stroke: var(--color1, #d4a870)" stroke-linejoin="miter" stroke-linecap="round" stroke-miterlimit="4" stroke-width="4" d="M2 30h76"></path>
</symbol>

<symbol id="icon-modal-close" viewBox="0 0 32 32">
<path fill="none" stroke="#d4a870" style="stroke: var(--color1, #d4a870)" stroke-linejoin="round" stroke-linecap="round" stroke-miterlimit="4" stroke-width="2.6667" d="M30.667 30.667l-29.333-29.333M30.667 1.333l-29.333 29.333"></path>
</symbol>

</defs>
</svg>